<?xml version="1.0" encoding="utf-8"?>
<!-- Generator: Adobe Illustrator 17.0.2, SVG Export Plug-In . SVG Version: 6.00 Build 0)  -->
<!DOCTYPE svg PUBLIC "-//W3C//DTD SVG 1.1//EN" "http://www.w3.org/Graphics/SVG/1.1/DTD/svg11.dtd">
<svg version="1.1" id="Layer_1" xmlns="http://www.w3.org/2000/svg" xmlns:xlink="http://www.w3.org/1999/xlink" x="0px" y="0px"
	 width="1280px" height="1280px" viewBox="0 0 1280 1280" enable-background="new 0 0 1280 1280" xml:space="preserve">
<g>
	<path fill="#AE9B80" d="M79.161,940.696c0.328,0,0.636-0.075,0.957-0.1v0.1l132.316,0.045c14.348,0,25.982,12.073,25.982,26.962
		c0,24.745-25.982,28.22-25.982,28.22h-47.278v0.09c-6.755,0.449-12.154,6.261-12.154,13.391c0,7.16,5.398,12.942,12.154,13.391
		v0.09h156.749c7.188,0,12.991-6.022,12.991-13.481c0-7.43-5.803-13.481-12.991-13.481h-65.244
		c4.879-8.208,7.737-17.855,7.737-28.22c0-29.778-23.268-53.924-51.964-53.924l-132.316-0.045v0.1c-0.322-0.025-0.63-0.1-0.957-0.1
		c-7.175,0-12.991,6.036-12.991,13.481C66.17,934.66,71.987,940.696,79.161,940.696z"/>
	<path fill="#AE9B80" d="M575.828,1021.574c-0.328,0-0.636-0.075-0.957-0.1v0.1l-144.224,0.045
		c-14.348,0-25.982,12.073-25.982,26.962c0,24.745,25.982,28.22,25.982,28.22h47.278v0.09c6.755,0.449,12.154,6.261,12.154,13.391
		c0,7.16-5.398,12.942-12.154,13.391v0.09h-195.72c-7.188,0-12.991-6.022-12.991-13.481c0-7.429,5.803-13.481,12.991-13.481h104.215
		c-4.879-8.208-7.737-17.855-7.737-28.22c0-29.778,23.268-53.924,51.964-53.924l144.224-0.045v0.1c0.322-0.025,0.63-0.1,0.957-0.1
		c7.175,0,12.991,6.036,12.991,13.481C588.819,1015.538,583.003,1021.574,575.828,1021.574z"/>
	<path fill="#AE9B80" d="M608.386,1133.915c0-29.734-23.244-53.855-51.897-53.855h-17.802c-7.602,0-13.771,6.402-13.771,14.291
		c0,7.919,6.169,14.321,13.771,14.321h17.802c13.449,0,24.326,11.287,24.326,25.244c0,6.978-2.719,13.289-7.134,17.84
		c-4.327,4.521-10.263,7.312-16.87,7.403h-94.524c-5.935-22.938-26.139-39.837-50.114-39.837c-28.682,0-51.897,24.121-51.897,53.855
		c0,29.734,23.215,53.855,51.897,53.855c23.77,0,43.828-16.627,49.938-39.261h94.378c0.117,0,0.204-0.03,0.322-0.03
		C585.317,1187.557,608.386,1163.558,608.386,1133.915z M436.498,1173.176c0,13.926-10.906,25.244-24.326,25.244
		c-13.45,0-24.326-11.317-24.326-25.244c0-13.957,10.876-25.243,24.326-25.243C425.592,1147.932,436.498,1159.219,436.498,1173.176z
		"/>
	<path fill="#AE9B80" d="M607.739,894.103c0-29.734-23.244-53.855-51.897-53.855H420.044c-7.602,0-13.771,6.402-13.771,14.291
		c0,7.919,6.169,14.321,13.771,14.321h135.798c13.449,0,24.326,11.287,24.326,25.244c0,6.978-2.719,13.289-7.134,17.84
		c-4.327,4.521-10.263,7.312-16.87,7.403h-139.99c-5.935-22.938-26.139-39.837-50.114-39.837c-28.682,0-51.897,24.121-51.897,53.855
		c0,29.734,23.215,53.855,51.897,53.855c23.77,0,43.828-16.627,49.938-39.261h139.844c0.117,0,0.205-0.03,0.322-0.03
		C584.67,947.745,607.739,923.746,607.739,894.103z M390.385,933.364c0,13.926-10.906,25.244-24.326,25.244
		c-13.45,0-24.326-11.317-24.326-25.244c0-13.957,10.876-25.243,24.326-25.243C379.479,908.12,390.385,919.407,390.385,933.364z"/>
	<path fill="#AE9B80" d="M294.704,840.719H72.018c-13.449,0-24.326-11.287-24.326-25.244c0-6.978,2.719-13.289,7.134-17.84
		c4.327-4.521,10.263-7.312,16.87-7.403h30.754v-0.153h103.546c28.653,0,51.897-24.121,51.897-53.855
		c0-29.643-23.069-53.643-51.576-53.825c-0.117,0-0.205-0.03-0.322-0.03h-53.242c-6.111-22.634-26.168-39.261-49.938-39.261
		c-28.682,0-51.897,24.121-51.897,53.855c0,29.734,23.215,53.855,51.897,53.855c23.975,0,44.178-16.9,50.114-39.837h53.388
		c6.608,0.091,12.543,2.882,16.87,7.403c4.415,4.551,7.134,10.862,7.134,17.84c0,13.957-10.876,25.243-24.326,25.243H70.199
		c-1.15,0-2.249,0.189-3.316,0.465c-26.243,2.677-46.761,25.59-46.761,53.543c0,29.734,23.244,53.855,51.897,53.855h222.686
		c7.602,0,13.771-6.402,13.771-14.291C308.475,847.12,302.306,840.719,294.704,840.719z M102.816,722.206
		c-13.45,0-24.326-11.287-24.326-25.243c0-13.926,10.876-25.243,24.326-25.243c13.42,0,24.326,11.317,24.326,25.243
		C127.142,710.919,116.236,722.206,102.816,722.206z"/>
	<path fill="#AE9B80" d="M367.092,715.82H525.41h30.432c0.181,0,0.359,0.01,0.538,0.014c0.712,0.016,1.418,0.059,2.113,0.137
		c0.107,0.012,0.213,0.029,0.32,0.042c0.694,0.087,1.38,0.201,2.054,0.347c0.108,0.023,0.215,0.052,0.323,0.077
		c0.669,0.155,1.329,0.334,1.976,0.545c0.099,0.032,0.196,0.07,0.295,0.103c0.654,0.224,1.299,0.47,1.926,0.748
		c0.069,0.03,0.136,0.065,0.204,0.096c0.659,0.3,1.306,0.624,1.933,0.982c0.013,0.007,0.025,0.016,0.025,0.016
		c2.028,1.163,3.869,2.608,5.484,4.296c4.139,4.267,6.787,10.08,7.102,16.54c0.021,0.431,0.032,0.864,0.032,1.3
		s-0.011,0.87-0.032,1.3c-0.315,6.46-2.963,12.273-7.102,16.54c-1.615,1.688-3.456,3.133-5.47,4.288
		c-0.013,0.008-0.026,0.016-0.04,0.024c-0.627,0.358-1.273,0.681-1.932,0.981c-0.069,0.031-0.136,0.065-0.205,0.096
		c-0.628,0.278-1.272,0.524-1.926,0.748c-0.099,0.034-0.196,0.071-0.295,0.103c-0.646,0.211-1.307,0.39-1.976,0.545
		c-0.108,0.025-0.214,0.054-0.323,0.077c-0.674,0.146-1.36,0.26-2.054,0.347c-0.107,0.013-0.213,0.03-0.321,0.042
		c-0.695,0.078-1.401,0.121-2.113,0.137c-0.18,0.004-0.358,0.014-0.538,0.014H525.41H318.833c-7.602,0-13.771,6.402-13.771,14.321
		c0,7.889,6.169,14.29,13.771,14.29H525.41h30.432c16.159,0,30.595-7.673,40.115-19.696c0.096-0.121,0.185-0.248,0.281-0.37
		c0.421-0.541,0.838-1.084,1.239-1.642c0.193-0.269,0.374-0.548,0.563-0.821c0.291-0.422,0.588-0.84,0.867-1.271
		c0.267-0.411,0.518-0.834,0.774-1.253c0.187-0.306,0.382-0.606,0.563-0.916c0.316-0.54,0.613-1.092,0.911-1.644
		c0.108-0.2,0.224-0.395,0.33-0.597c0.344-0.658,0.67-1.328,0.988-2.002c0.049-0.104,0.103-0.204,0.152-0.309
		c0.349-0.75,0.679-1.512,0.994-2.281c0.013-0.033,0.029-0.065,0.042-0.097c1.955-4.795,3.257-9.945,3.796-15.333
		c0.004-0.04,0.011-0.079,0.015-0.119c0.073-0.745,0.122-1.498,0.165-2.252c0.009-0.162,0.027-0.322,0.035-0.484
		c0.045-0.917,0.067-1.839,0.067-2.767s-0.023-1.851-0.067-2.767c-0.008-0.163-0.026-0.322-0.035-0.484
		c-0.043-0.754-0.092-1.507-0.165-2.252c-0.004-0.04-0.011-0.08-0.015-0.12c-0.539-5.388-1.841-10.538-3.796-15.333
		c-0.013-0.033-0.029-0.065-0.042-0.097c-0.315-0.769-0.646-1.531-0.994-2.281c-0.048-0.104-0.103-0.205-0.152-0.309
		c-0.318-0.674-0.644-1.344-0.988-2.002c-0.106-0.203-0.223-0.4-0.332-0.602c-0.297-0.55-0.594-1.101-0.908-1.639
		c-0.183-0.314-0.381-0.617-0.57-0.926c-0.254-0.415-0.503-0.835-0.768-1.242c-0.28-0.431-0.576-0.849-0.867-1.271
		c-0.189-0.273-0.369-0.552-0.563-0.821c-0.404-0.562-0.824-1.11-1.248-1.655c-0.092-0.118-0.178-0.24-0.27-0.357
		c-9.52-12.023-23.956-19.696-40.115-19.696H525.41H367.092c-7.602,0-13.771,6.402-13.771,14.291
		C353.321,709.418,359.49,715.82,367.092,715.82z"/>
	<path fill="#AE9B80" d="M608.386,514.368c0-7.284-5.479-13.184-12.384-13.65v-0.089H332.073c-7.312,0-13.24,6.151-13.24,13.739
		s5.928,13.739,13.24,13.739h54.711c-4.972,8.366-7.885,18.197-7.885,28.761c0,30.349,23.714,54.957,52.96,54.957h71.847
		c6.061,23.387,26.656,40.577,51.106,40.577c29.245,0,52.96-24.609,52.96-54.957s-23.714-54.957-52.96-54.957
		c-24.891,0-45.781,17.831-51.43,41.859h-1.014h-4.723h-65.786c-14.623,0-26.48-12.304-26.48-27.479
		c0-25.204,26.48-28.761,26.48-28.761h65.05h5.459h93.635v-0.089C602.907,527.552,608.386,521.652,608.386,514.368z
		 M554.811,569.967c14.623,0,26.48,12.304,26.48,27.479c0,15.174-11.857,27.479-26.48,27.479s-26.48-12.304-26.48-27.479
		C528.331,582.271,540.189,569.967,554.811,569.967z"/>
	<path fill="#AE9B80" d="M40.091,527.591c0.328,0,0.636-0.075,0.957-0.1v0.1l155.322,0.045c14.348,0,25.982,12.073,25.982,26.962
		c0,24.745-25.982,28.22-25.982,28.22H39.485v0.09c-6.755,0.449-12.154,6.261-12.154,13.391c0,7.16,5.398,12.942,12.154,13.391v0.09
		h255.219c7.188,0,12.991-6.022,12.991-13.481c0-7.43-5.803-13.481-12.991-13.481h-54.106c4.879-8.208,7.737-17.855,7.737-28.22
		c0-29.778-23.268-53.924-51.964-53.924l-155.322-0.045v0.1c-0.322-0.025-0.63-0.1-0.957-0.1c-7.175,0-12.991,6.036-12.991,13.481
		C27.1,521.555,32.916,527.591,40.091,527.591z"/>
	<path fill="#AE9B80" d="M556.81,92.261c-0.117,0-0.205-0.03-0.322-0.03h-93.055c-6.111-22.634-26.168-39.261-49.938-39.261
		c-28.682,0-51.897,24.121-51.897,53.855s23.215,53.855,51.897,53.855c23.975,0,44.178-16.9,50.114-39.837h93.201
		c6.608,0.091,12.543,2.882,16.87,7.403c4.415,4.551,7.134,10.862,7.134,17.84c0,13.957-10.876,25.243-24.326,25.243H293.76
		c-7.602,0-13.771,6.402-13.771,14.321c0,7.889,6.169,14.291,13.771,14.291h0.944v0.153h69.071
		c6.608,0.091,12.543,2.882,16.87,7.403c4.415,4.551,7.134,10.862,7.134,17.84c0,13.957-10.876,25.243-24.326,25.243H222.316
		c-7.602,0-13.771,6.402-13.771,14.321c0,7.889,6.169,14.291,13.771,14.291h141.138c28.653,0,51.897-24.121,51.897-53.855
		c0-9.19-2.225-17.833-6.134-25.397h147.272c28.653,0,51.897-24.121,51.897-53.855C608.386,116.442,585.317,92.443,556.81,92.261z
		 M413.496,132.067c-13.45,0-24.326-11.287-24.326-25.243c0-13.926,10.876-25.243,24.326-25.243
		c13.42,0,24.326,11.317,24.326,25.243C437.822,120.781,426.916,132.067,413.496,132.067z"/>
	<path fill="#AE9B80" d="M270.896,345.922c-0.117,0-0.205-0.03-0.322-0.03h-64.232c-6.111-22.634-26.168-39.261-49.938-39.261
		c-28.682,0-51.897,24.121-51.897,53.855c0,29.734,23.215,53.855,51.897,53.855c23.975,0,44.178-16.9,50.114-39.837h64.378
		c6.608,0.091,12.543,2.882,16.87,7.403c4.415,4.551,7.134,10.862,7.134,17.84c0,13.957-10.876,25.243-24.326,25.243H91.31
		c-7.602,0-13.771,6.402-13.771,14.321c0,7.889,6.169,14.291,13.771,14.291h179.264c28.653,0,51.897-24.121,51.897-53.855
		C322.472,370.104,299.403,346.104,270.896,345.922z M156.404,385.729c-13.45,0-24.326-11.287-24.326-25.244
		c0-13.926,10.876-25.243,24.326-25.243c13.42,0,24.326,11.317,24.326,25.243C180.73,374.442,169.824,385.729,156.404,385.729z"/>
	<path fill="#AE9B80" d="M600.996,429.022c0,7.897-6.17,14.289-13.77,14.289H418.989c-28.655,0-51.897-24.119-51.897-53.854
		c0-29.634,23.069-53.641,51.572-53.82c0.119,0,0.206-0.034,0.325-0.034h95.351v0.045h34.825c6.603-0.09,12.547-2.876,16.866-7.403
		c4.417-4.55,7.134-10.863,7.134-17.839c0-13.952-10.869-25.242-24.324-25.242h-85.23c-7.599,0-13.77-6.403-13.77-14.323
		c0-7.886,6.17-14.289,13.77-14.289h85.23c28.655,0,51.897,24.119,51.897,53.854c0,29.646-23.069,53.641-51.572,53.82
		c-0.119,0-0.206,0.034-0.325,0.034h-39.09v-0.045h-91.086c-6.603,0.09-12.546,2.887-16.866,7.403
		c-4.417,4.55-7.134,10.863-7.134,17.839c0,13.963,10.869,25.253,24.325,25.253h168.237
		C594.825,414.71,600.996,421.102,600.996,429.022z"/>
	<path fill="#AE9B80" d="M1200.839,940.696c-0.328,0-0.636-0.075-0.958-0.1v0.1l-132.316,0.045
		c-14.348,0-25.982,12.073-25.982,26.962c0,24.745,25.982,28.22,25.982,28.22h47.278v0.09c6.755,0.449,12.154,6.261,12.154,13.391
		c0,7.16-5.398,12.942-12.154,13.391v0.09H958.093c-7.188,0-12.991-6.022-12.991-13.481c0-7.43,5.803-13.481,12.991-13.481h65.244
		c-4.879-8.208-7.737-17.855-7.737-28.22c0-29.778,23.268-53.924,51.964-53.924l132.316-0.045v0.1c0.322-0.025,0.63-0.1,0.958-0.1
		c7.175,0,12.991,6.036,12.991,13.481C1213.83,934.66,1208.013,940.696,1200.839,940.696z"/>
	<path fill="#AE9B80" d="M704.172,1021.574c0.328,0,0.636-0.075,0.957-0.1v0.1l144.224,0.045c14.348,0,25.982,12.073,25.982,26.962
		c0,24.745-25.982,28.22-25.982,28.22h-47.278v0.09c-6.755,0.449-12.154,6.261-12.154,13.391c0,7.16,5.398,12.942,12.154,13.391
		v0.09h195.72c7.188,0,12.991-6.022,12.991-13.481c0-7.429-5.803-13.481-12.991-13.481H893.581
		c4.879-8.208,7.737-17.855,7.737-28.22c0-29.778-23.268-53.924-51.964-53.924l-144.224-0.045v0.1c-0.322-0.025-0.63-0.1-0.957-0.1
		c-7.175,0-12.991,6.036-12.991,13.481C691.181,1015.538,696.997,1021.574,704.172,1021.574z"/>
	<path fill="#AE9B80" d="M723.19,1187.74c0.117,0,0.205,0.03,0.322,0.03h94.378c6.111,22.634,26.168,39.261,49.938,39.261
		c28.682,0,51.897-24.121,51.897-53.855c0-29.734-23.215-53.855-51.897-53.855c-23.975,0-44.178,16.9-50.114,39.837H723.19
		c-6.608-0.091-12.543-2.882-16.87-7.403c-4.415-4.551-7.134-10.862-7.134-17.84c0-13.957,10.876-25.244,24.326-25.244h17.802
		c7.602,0,13.771-6.402,13.771-14.321c0-7.889-6.169-14.291-13.771-14.291h-17.802c-28.653,0-51.897,24.121-51.897,53.855
		C671.614,1163.558,694.683,1187.557,723.19,1187.74z M867.828,1147.932c13.45,0,24.326,11.287,24.326,25.243
		c0,13.926-10.876,25.244-24.326,25.244c-13.42,0-24.326-11.317-24.326-25.244C843.502,1159.219,854.408,1147.932,867.828,1147.932z
		"/>
	<path fill="#AE9B80" d="M723.837,947.927c0.117,0,0.205,0.03,0.322,0.03h139.844c6.111,22.634,26.168,39.261,49.938,39.261
		c28.682,0,51.897-24.121,51.897-53.855c0-29.734-23.215-53.855-51.897-53.855c-23.975,0-44.178,16.9-50.114,39.837h-139.99
		c-6.608-0.091-12.543-2.882-16.87-7.403c-4.415-4.551-7.134-10.862-7.134-17.84c0-13.957,10.876-25.244,24.326-25.244h135.798
		c7.602,0,13.771-6.402,13.771-14.321c0-7.889-6.169-14.291-13.771-14.291H724.158c-28.653,0-51.897,24.121-51.897,53.855
		C672.261,923.746,695.33,947.745,723.837,947.927z M913.941,908.12c13.45,0,24.326,11.287,24.326,25.243
		c0,13.926-10.876,25.244-24.326,25.244c-13.42,0-24.326-11.317-24.326-25.244C889.615,919.407,900.521,908.12,913.941,908.12z"/>
	<path fill="#AE9B80" d="M971.525,855.039c0,7.889,6.169,14.291,13.771,14.291h222.686c28.653,0,51.897-24.121,51.897-53.855
		c0-27.953-20.519-50.866-46.761-53.543c-1.068-0.276-2.167-0.465-3.317-0.465h-135.798c-13.449,0-24.326-11.287-24.326-25.243
		c0-6.978,2.719-13.289,7.134-17.84c4.327-4.521,10.263-7.312,16.87-7.403h53.388c5.935,22.937,26.139,39.837,50.114,39.837
		c28.682,0,51.897-24.121,51.897-53.855c0-29.734-23.215-53.855-51.897-53.855c-23.771,0-43.828,16.627-49.938,39.261h-53.242
		c-0.117,0-0.205,0.03-0.322,0.03c-28.507,0.182-51.576,24.182-51.576,53.825c0,29.734,23.244,53.855,51.897,53.855h103.546v0.153
		h30.754c6.608,0.091,12.543,2.882,16.87,7.403c4.415,4.551,7.134,10.862,7.134,17.84c0,13.957-10.876,25.244-24.326,25.244H985.296
		C977.694,840.719,971.525,847.12,971.525,855.039z M1152.858,696.963c0-13.926,10.906-25.243,24.326-25.243
		c13.45,0,24.326,11.317,24.326,25.243c0,13.957-10.876,25.243-24.326,25.243C1163.764,722.206,1152.858,710.919,1152.858,696.963z"
		/>
	<path fill="#AE9B80" d="M912.908,715.82H754.59h-30.432c-0.181,0-0.359,0.01-0.538,0.014c-0.712,0.016-1.418,0.059-2.113,0.137
		c-0.107,0.012-0.213,0.029-0.32,0.042c-0.694,0.087-1.38,0.201-2.054,0.347c-0.108,0.024-0.215,0.052-0.323,0.077
		c-0.669,0.155-1.329,0.334-1.976,0.545c-0.099,0.032-0.196,0.07-0.295,0.103c-0.654,0.224-1.299,0.47-1.926,0.748
		c-0.069,0.03-0.136,0.065-0.204,0.096c-0.659,0.3-1.306,0.624-1.933,0.982c-0.013,0.007-0.025,0.016-0.038,0.023
		c-2.015,1.155-3.856,2.601-5.471,4.288c-4.139,4.267-6.787,10.08-7.102,16.54c-0.021,0.431-0.032,0.864-0.032,1.3
		s0.011,0.87,0.032,1.3c0.315,6.46,2.963,12.273,7.102,16.54c1.615,1.688,3.456,3.133,5.47,4.288
		c0.013,0.008,0.026,0.016,0.04,0.024c0.627,0.358,1.273,0.681,1.932,0.981c0.069,0.031,0.136,0.065,0.205,0.096
		c0.628,0.278,1.272,0.524,1.926,0.748c0.099,0.034,0.196,0.071,0.295,0.103c0.646,0.211,1.307,0.39,1.976,0.545
		c0.108,0.025,0.214,0.054,0.323,0.077c0.674,0.146,1.36,0.26,2.054,0.347c0.107,0.013,0.213,0.03,0.321,0.042
		c0.695,0.078,1.401,0.121,2.113,0.137c0.18,0.004,0.358,0.014,0.538,0.014h30.432h206.576c7.602,0,13.771,6.402,13.771,14.321
		c0,7.889-6.169,14.29-13.771,14.29H754.59h-30.432c-16.159,0-30.595-7.673-40.115-19.696c-0.096-0.121-0.185-0.248-0.281-0.37
		c-0.421-0.541-0.838-1.084-1.239-1.642c-0.193-0.269-0.374-0.548-0.563-0.821c-0.291-0.422-0.588-0.84-0.867-1.271
		c-0.267-0.411-0.518-0.834-0.774-1.253c-0.187-0.306-0.382-0.606-0.563-0.916c-0.316-0.54-0.613-1.092-0.911-1.644
		c-0.108-0.2-0.224-0.395-0.33-0.597c-0.344-0.658-0.67-1.328-0.988-2.002c-0.049-0.104-0.103-0.204-0.152-0.309
		c-0.349-0.75-0.679-1.512-0.994-2.281c-0.013-0.033-0.029-0.065-0.042-0.097c-1.955-4.795-3.257-9.945-3.796-15.333
		c-0.004-0.04-0.011-0.079-0.015-0.119c-0.073-0.745-0.122-1.498-0.165-2.252c-0.009-0.162-0.027-0.322-0.035-0.485
		c-0.045-0.917-0.067-1.839-0.067-2.767s0.023-1.851,0.067-2.767c0.008-0.163,0.026-0.322,0.035-0.484
		c0.043-0.754,0.092-1.507,0.165-2.252c0.004-0.04,0.011-0.08,0.015-0.12c0.539-5.388,1.841-10.538,3.796-15.333
		c0.013-0.033,0.029-0.065,0.042-0.097c0.315-0.769,0.646-1.531,0.994-2.281c0.048-0.104,0.103-0.205,0.152-0.309
		c0.318-0.674,0.644-1.344,0.988-2.002c0.106-0.203,0.223-0.4,0.332-0.602c0.297-0.55,0.594-1.101,0.908-1.639
		c0.183-0.314,0.381-0.617,0.57-0.926c0.254-0.415,0.503-0.835,0.768-1.242c0.28-0.431,0.576-0.849,0.867-1.271
		c0.189-0.273,0.369-0.552,0.563-0.821c0.404-0.562,0.824-1.11,1.248-1.655c0.092-0.118,0.178-0.24,0.27-0.357
		c9.52-12.023,23.956-19.696,40.115-19.696h30.432h158.318c7.602,0,13.771,6.402,13.771,14.291
		C926.679,709.418,920.51,715.82,912.908,715.82z"/>
	<path fill="#AE9B80" d="M683.998,528.018v0.089h93.635h5.459h65.05c0,0,26.48,3.557,26.48,28.761
		c0,15.174-11.857,27.479-26.48,27.479h-65.786h-4.723h-1.014c-5.649-24.028-26.539-41.859-51.43-41.859
		c-29.245,0-52.96,24.609-52.96,54.957s23.714,54.957,52.96,54.957c24.45,0,45.045-17.189,51.106-40.577h71.847
		c29.245,0,52.96-24.609,52.96-54.957c0-10.564-2.913-20.395-7.885-28.761h54.711c7.312,0,13.24-6.151,13.24-13.739
		s-5.928-13.739-13.24-13.739H683.998v0.089c-6.905,0.466-12.384,6.366-12.384,13.65
		C671.614,521.652,677.093,527.552,683.998,528.018z M751.669,597.445c0,15.174-11.857,27.479-26.48,27.479
		s-26.48-12.304-26.48-27.479c0-15.174,11.857-27.479,26.48-27.479S751.669,582.271,751.669,597.445z"/>
	<path fill="#AE9B80" d="M1239.909,527.591c-0.328,0-0.635-0.075-0.957-0.1v0.1l-155.322,0.045
		c-14.348,0-25.982,12.073-25.982,26.962c0,24.745,25.982,28.22,25.982,28.22h156.886v0.09c6.755,0.449,12.154,6.261,12.154,13.391
		c0,7.16-5.399,12.942-12.154,13.391v0.09H985.296c-7.188,0-12.991-6.022-12.991-13.481c0-7.43,5.803-13.481,12.991-13.481h54.106
		c-4.879-8.208-7.737-17.855-7.737-28.22c0-29.778,23.268-53.924,51.964-53.924l155.322-0.045v0.1c0.322-0.025,0.63-0.1,0.957-0.1
		c7.175,0,12.991,6.036,12.991,13.481C1252.9,521.555,1247.084,527.591,1239.909,527.591z"/>
	<path fill="#AE9B80" d="M671.614,146.085c0,29.734,23.244,53.855,51.897,53.855h147.272c-3.909,7.564-6.134,16.207-6.134,25.397
		c0,29.734,23.244,53.855,51.897,53.855h141.138c7.602,0,13.771-6.402,13.771-14.291c0-7.919-6.169-14.321-13.771-14.321H916.546
		c-13.449,0-24.326-11.287-24.326-25.243c0-6.978,2.719-13.289,7.134-17.84c4.327-4.521,10.262-7.312,16.87-7.403h69.071v-0.153
		h0.944c7.602,0,13.771-6.402,13.771-14.291c0-7.919-6.169-14.321-13.771-14.321H723.511c-13.449,0-24.326-11.287-24.326-25.243
		c0-6.978,2.719-13.289,7.134-17.84c4.327-4.521,10.262-7.312,16.87-7.403h93.201c5.935,22.938,26.139,39.837,50.114,39.837
		c28.682,0,51.897-24.121,51.897-53.855s-23.215-53.855-51.897-53.855c-23.77,0-43.828,16.627-49.938,39.261h-93.055
		c-0.117,0-0.205,0.03-0.322,0.03C694.683,92.443,671.614,116.442,671.614,146.085z M842.178,106.824
		c0-13.926,10.906-25.243,24.326-25.243c13.45,0,24.326,11.317,24.326,25.243c0,13.957-10.876,25.243-24.326,25.243
		C853.084,132.067,842.178,120.781,842.178,106.824z"/>
	<path fill="#AE9B80" d="M957.528,399.747c0,29.734,23.244,53.855,51.897,53.855h179.264c7.602,0,13.771-6.402,13.771-14.291
		c0-7.919-6.169-14.321-13.771-14.321h-179.264c-13.449,0-24.326-11.287-24.326-25.243c0-6.978,2.719-13.289,7.134-17.84
		c4.327-4.521,10.263-7.312,16.87-7.403h64.378c5.935,22.938,26.139,39.837,50.114,39.837c28.682,0,51.897-24.121,51.897-53.855
		c0-29.734-23.215-53.855-51.897-53.855c-23.771,0-43.828,16.627-49.938,39.261h-64.232c-0.117,0-0.205,0.03-0.322,0.03
		C980.597,346.104,957.528,370.104,957.528,399.747z M1099.27,360.486c0-13.926,10.906-25.243,24.326-25.243
		c13.45,0,24.326,11.317,24.326,25.243c0,13.957-10.876,25.244-24.326,25.244C1110.176,385.729,1099.27,374.442,1099.27,360.486z"/>
	<path fill="#AE9B80" d="M679.004,429.022c0,7.897,6.17,14.289,13.77,14.289h168.237c28.655,0,51.896-24.119,51.896-53.854
		c0-29.634-23.069-53.641-51.572-53.82c-0.119,0-0.206-0.034-0.325-0.034h-95.351v0.045h-34.825
		c-6.603-0.09-12.547-2.876-16.866-7.403c-4.417-4.55-7.134-10.863-7.134-17.839c0-13.952,10.869-25.242,24.324-25.242h85.23
		c7.599,0,13.77-6.403,13.77-14.323c0-7.886-6.17-14.289-13.77-14.289h-85.23c-28.655,0-51.897,24.119-51.897,53.854
		c0,29.646,23.069,53.641,51.572,53.82c0.119,0,0.206,0.034,0.325,0.034h39.09v-0.045h91.086c6.603,0.09,12.547,2.887,16.866,7.403
		c4.417,4.55,7.134,10.863,7.134,17.839c0,13.963-10.869,25.253-24.324,25.253H692.774
		C685.175,414.71,679.004,421.102,679.004,429.022z"/>
</g>
</svg>
